<?xml version="1.0" encoding="UTF-8"?>
<svg id="Camada_1" data-name="Camada 1" xmlns="http://www.w3.org/2000/svg" viewBox="0 0 748.07 334.37">
  <defs>
    <style>
      .cls-1 {
        fill: #e6383c;
        stroke-width: 0px;
      }
    </style>
  </defs>
  <path class="cls-1" d="M7.94,191.63c-.46,34.33.62,68.72-2.57,102.99-.95,10.23-.74,19.25,13.53,19.14,53.06-.43,106.12-.52,159.18-.83,4.62-.03,9.44.15,12.28-5.01,8.52-15.48,8.83-40.65-8.51-40.56-29.48.14-71.79,3.06-101.26,3.63-12.77.25-18.01-4.77-17.83-17.77.29-20.71-1.29-41.46-.85-62.17,1.04-47.96,2.46-95.91,4.52-143.84.59-13.86-3.63-19.85-17.89-18.57-9.95.89-20.09,1.02-30.03.13C3.69,27.46-1.44,32.8.34,48.02c5.58,47.68,8.49,95.56,7.6,143.61Z"/>
  <path class="cls-1" d="M276.51,314.35c-20.05-87.21-34.89-175.32-43.16-264.45-1.26-13.61-7.65-17.76-20.63-17.19-19.2.84-38.47.22-57.71.25-20.48,0-40.97.08-61.45-.04-8.29-.05-15.14,1.46-15.15,11.75-.03,19.24,0,38.49.13,57.73.06,8.66,5.23,12.12,13.26,11.97,40.69-.73,36.79-4.33,28.77,38.18-.8,5.53-1.39,11.09-2.09,16.63-1.28,10.06,1.27,19.51-11.17,19.38-6.82-.07-18.05,1.66-17.75,9.56.29,7.68-4.59,20.71,4.96,21.88,14.88,1.82,12.71,11.37,10.31,21.51-2.7,11.42,2.31,15.36,13.79,15.42,7.34.04,13.56-.33,20.47-.39,13.58-.1,21.62-3.81,22.04-18.18.53-17.77,13.3-16,25.24-16.35,13.01-.37,19.27,5.31,20.25,18.45,1.3,17.32,3.6,34.58,5.56,51.85,4.79,42.18,4.81,41.65,48.2,42.05,15.78.15,19.47-5.35,16.1-20.02ZM181.8,180.94c-8.25-.73-22.06,4.43-20.93-10.42,2.37-31.02,6.46-61.98,14.21-92.16,1.95.13,3.9.26,5.86.39,4.65,29.19,9.25,58.38,13.97,87.56,1.69,10.47-2.8,15.54-13.1,14.63Z"/>
  <path class="cls-1" d="M433.32,35.3c3.95.45,8.4.96,13.36,1.52,4.96.56,9.98,1.07,15.05,1.52s9.53.68,13.36.68h11.33c3.72,0,7.05-.11,9.98-.34,1.33-.09,2.65-.18,3.94-.27,3.08-.21,5.62,2.35,5.37,5.43-.7,8.7-1.32,18.36-1.87,29-.45,11.5-.9,25.2-1.35,41.09s-.68,33.99-.68,54.28l4.2,134.41c.1,3.29-2.9,5.82-6.12,5.14-.78-.16-1.56-.33-2.34-.51-.09-.02-.18-.04-.27-.05-2.67-.44-5.61-.83-8.83-1.16-3.27-.34-6.71-.51-10.32-.51-3.83,0-7.55.06-11.16.17-3.61.12-6.88.28-9.81.51-1.35.09-2.66.16-3.94.22-2.98.13-5.39-2.36-5.23-5.34.61-10.69,1.29-22.29,2.06-34.78.45-12.63.96-27.45,1.52-44.48.56-17.02.84-35.46.84-55.3,0-32.47-.34-48.7-1.01-48.7-1.58,0-4.85,19.84-9.81,59.53-2.48,17.36-4.23,31.79-5.24,43.29-1.01,11.5-1.75,20.86-2.2,28.07-.45,5.56-.7,10.31-.75,14.27-.04,2.91-2.52,5.16-5.43,4.95l-3.97-.28c-2.93-.23-6.09-.45-9.47-.68-3.38-.22-6.77-.34-10.15-.34-3.83,0-7.55.06-11.16.17-3.61.11-6.88.28-9.81.51-1.69.11-3.35.22-4.99.34-2.69.19-5.05-1.76-5.36-4.45-.4-3.54-.9-7.92-1.49-13.14-.9-6.76-1.97-16.06-3.21-27.9-1.24-11.84-3.1-27.11-5.58-45.83-4.74-36.08-8-54.11-9.81-54.11-1.13,0-1.69,14.54-1.69,43.63,0,16.91.28,33.88.85,50.9.56,17.02,1.3,32.3,2.2,45.83.7,12.49,1.54,24.56,2.52,36.23.42,5-3.87,9.09-8.85,8.43-.03,0-.07,0-.1-.01-2.78-.43-5.86-.8-9.24-1.13-3.85-.37-7.74-.56-11.61-.56-3.75,0-7.4.06-10.94.17-3.61.12-6.88.28-9.81.51-1.35.09-2.66.16-3.94.22-2.98.13-5.39-2.36-5.23-5.34.61-10.69,1.29-22.29,2.06-34.78.45-12.63.96-27.45,1.52-44.48.56-17.02.85-35.46.85-55.3,0-14.21-.62-28.86-1.86-43.97-1.24-15.11-2.65-28.92-4.23-41.43-1.58-12.52-3.05-22.83-4.4-30.95-.38-2.3-.72-4.28-1.01-5.95-.58-3.3,2.17-6.19,5.5-5.87,3.96.38,7.88.71,11.74,1,5.19.45,10.82.79,16.91,1.02,6.09.23,11.72.34,16.91.34,7.67,0,13.81-.06,18.43-.17,4.62-.11,8.17-.28,10.65-.51.56-.04,1.08-.09,1.57-.13,2.59-.23,4.92,1.6,5.4,4.15,3.49,18.72,6.69,36.09,9.61,52.12l4.06,22.32c1.35,7.44,2.65,14.38,3.89,20.8,1.24,6.43,2.37,12.12,3.38,17.08,1.02,4.96,1.75,8.57,2.2,10.82.68,3.16,1.35,5.75,2.03,7.78.68,2.03,1.24,3.05,1.69,3.05.68,0,1.35-3.72,2.03-11.16.23-2.71.73-6.65,1.52-11.84.79-5.19,1.63-11.1,2.54-17.76.9-6.65,1.92-13.81,3.04-21.48l3.38-23c2.31-16.58,5.01-34.43,8.1-53.55.42-2.61,2.78-4.47,5.41-4.27.96.07,2.03.18,3.23.32Z"/>
  <path class="cls-1" d="M738.03,276.04c3.63,8.58,6.35,15.16,8.17,19.73.53,1.27,1.01,2.45,1.47,3.54,1.49,3.57-1.27,7.44-5.1,7.18-.37-.03-.75-.05-1.13-.08-2.95-.23-6.35-.34-10.21-.34h-11.57c-7.71.23-13.67.46-17.87.69s-7.43.57-9.7,1.03c-.02,0-.05,0-.07.01-2.69.5-5.28-1.17-5.95-3.84-.94-3.77-1.88-7.87-2.82-12.3-1.13-5.49-2.38-12.12-3.74-19.9-1.36-7.78-2.61-16.47-3.75-26.08-1.13-8-2.83-14.01-5.1-18.01-2.27-4.01-4.42-6.01-6.47-6.01-2.27,0-4.2,1.83-5.78,5.49-.46,2.74-.74,6.18-.85,10.29-.11,4.12-.17,8.46-.17,13.04,0,8.46.11,16.07.34,22.82.22,6.75.57,12.64,1.02,17.67.23,3.02.49,5.84.78,8.45.39,3.51-2.72,6.37-6.15,5.65-.58-.12-1.17-.25-1.77-.38-2.72-.46-5.79-.91-9.19-1.37-3.4-.46-6.92-.69-10.55-.69-3.86,0-7.6.06-11.23.17-3.63.11-6.92.28-9.87.51-1.41.09-2.79.17-4.16.23-3.06.12-5.57-2.4-5.4-5.49.58-10.64,1.15-22.27,1.73-34.88.45-12.81.96-27.79,1.53-44.95.57-17.16.85-35.8.85-55.93,0-11.21-.17-22.47-.51-33.8-.34-11.32-.68-22.07-1.02-32.25-.34-10.18-.74-19.44-1.19-27.79-.46-8.35-.79-15.15-1.02-20.42-.23-1.83-.34-3.66-.34-5.49v-5.96c0-2.66,2.01-4.91,4.64-5.19,8.52-.9,16.67-1.58,24.46-2.07,9.19-.57,17.75-.86,25.69-.86,13.84,0,26.15,1.2,36.92,3.6,10.77,2.4,19.74,6.69,26.88,12.87,7.15,6.18,12.59,14.64,16.33,25.39,3.74,10.75,5.62,24.36,5.62,40.83,0,22.87-2.55,41.12-7.66,54.73-4.98,13.28-11.31,23.34-18.99,30.2-.38.34-.73.74-1,1.19-1.76,2.96-2.64,5.82-2.64,8.59,0,3.2.91,7.21,2.72,12.01,1.81,4.8,4.31,11.21,7.49,19.22l-.34-.34,2.04,4.8.34.34c5.9,14.18,10.66,25.56,14.29,34.14ZM665.04,76.86c-1.7.91-3.12,2.63-4.25,5.15-1.13,2.52-1.93,5.95-2.38,10.29-.46,4.35-.68,9.95-.68,16.81,0,12.12.34,21.67,1.02,28.65.68,6.98,1.7,12.24,3.06,15.78,1.36,3.55,3.06,5.78,5.1,6.69,2.04.91,4.31,1.37,6.8,1.37,5.67,0,10.09-4.12,13.27-12.35,3.18-8.24,4.77-19.9,4.77-35,0-7.55-.57-13.78-1.7-18.7-1.13-4.92-2.66-8.86-4.59-11.84-1.93-2.97-4.08-5.09-6.47-6.35-2.38-1.26-4.93-1.89-7.66-1.89-2.49,0-4.59.46-6.29,1.37Z"/>
  <g>
    <path class="cls-1" d="M562.51,108.8c4.2,0,8.15-.08,11.83-.26,1.65,0,3.25-.01,4.82-.04,3.64-.06,6.43,4.07,5.91,8.74-.61,5.44-1.16,11.32-1.66,17.64-.79,8.61-1.45,18.78-1.97,30.52-.52,11.67-.78,24.71-.79,39.13,0,.17,0,.35.01.52l4.68,96.22c.23,4.71-2.87,8.56-6.5,8.09-1.11-.15-2.21-.3-3.32-.46-3.15-.34-6.64-.63-10.45-.89-3.81-.25-7.69-.38-11.63-.38-4.47,0-8.8.04-13.01.13-4.2.08-8.02.21-11.43.38-1.49.06-2.95.12-4.37.16-3.54.1-6.33-3.84-5.96-8.4.55-6.76,1.1-13.97,1.65-21.64.53-9.46,1.05-20.56,1.58-33.31.53-12.75.79-26.56.79-41.41,0-10.13-.2-20.43-.59-30.9-.39-10.47-.85-20.14-1.38-29-.53-8.87-1.05-16.38-1.58-22.54-.53-6.16-.79-10-.79-11.52v-1.01l31.14.26h13.01Z"/>
    <path class="cls-1" d="M562.51.11c4.2,0,8.15-.03,11.83-.1,1.65,0,3.25,0,4.82-.01,3.64-.02,6.43,1.56,5.91,3.36-.61,2.09-1.16,4.35-1.66,6.78-.79,3.31-1.45,7.22-1.97,11.72-.52,4.48-.78,9.49-.79,15.03,0,.07,0,.13.01.2l4.68,36.96c.23,1.81-2.87,3.29-6.5,3.11-1.11-.06-2.21-.12-3.32-.18-3.15-.13-6.64-.24-10.45-.34-3.81-.1-7.69-.15-11.63-.15-4.47,0-8.8.02-13.01.05-4.2.03-8.02.08-11.43.14-1.49.02-2.95.04-4.37.06-3.54.04-6.33-1.48-5.96-3.23.55-2.6,1.1-5.37,1.65-8.31.53-3.63,1.05-7.9,1.58-12.8s.79-10.2.79-15.91c0-3.89-.2-7.85-.59-11.87-.39-4.02-.85-7.74-1.38-11.14s-1.05-6.29-1.58-8.66c-.53-2.37-.79-3.84-.79-4.43V.02l31.14.1h13.01Z"/>
  </g>
</svg>