<svg xmlns="http://www.w3.org/2000/svg" xmlns:xlink="http://www.w3.org/1999/xlink" width="500" zoomAndPan="magnify" viewBox="0 0 375 374.999991" height="500" preserveAspectRatio="xMidYMid meet" version="1.0"><defs><g/><clipPath id="74340ed550"><path d="M 106.121094 231 L 111 231 L 111 247 L 106.121094 247 Z M 106.121094 231 " clip-rule="nonzero"/></clipPath><clipPath id="c9cb812036"><path d="M 154 194.179688 L 159 194.179688 L 159 284 L 154 284 Z M 154 194.179688 " clip-rule="nonzero"/></clipPath><clipPath id="1fd186a14f"><path d="M 309 225 L 314.621094 225 L 314.621094 253 L 309 253 Z M 309 225 " clip-rule="nonzero"/></clipPath><clipPath id="2c624e5980"><path d="M 328.789062 105.011719 L 338.539062 105.011719 L 338.539062 114.761719 L 328.789062 114.761719 Z M 328.789062 105.011719 " clip-rule="nonzero"/></clipPath><clipPath id="8dbddd234b"><path d="M 330 119 L 339 119 L 339 129 L 330 129 Z M 330 119 " clip-rule="nonzero"/></clipPath><clipPath id="01735dc716"><path d="M 333.546875 118.375 L 340.292969 123.121094 L 335.546875 129.867188 L 328.800781 125.121094 Z M 333.546875 118.375 " clip-rule="nonzero"/></clipPath><clipPath id="e5d08181e5"><path d="M 333.546875 118.375 L 340.292969 123.121094 L 335.546875 129.867188 L 328.800781 125.121094 Z M 333.546875 118.375 " clip-rule="nonzero"/></clipPath><clipPath id="d8ba64e64b"><path d="M 328.082031 132.476562 L 334.832031 132.476562 L 334.832031 139 L 328.082031 139 Z M 328.082031 132.476562 " clip-rule="nonzero"/></clipPath><clipPath id="21ac40062d"><path d="M 36 106 L 56.957031 106 L 56.957031 219.761719 L 36 219.761719 Z M 36 106 " clip-rule="nonzero"/></clipPath></defs><g fill="#03028b" fill-opacity="1"><g transform="translate(254.452195, 183.456206)"><g><path d="M 8.828125 -67.34375 L 8.6875 -46.0625 C 8.6875 -45.1875 8.546875 -44.3125 8.546875 -43.453125 L 8.546875 -37.359375 C 8.546875 -33.890625 8.40625 -30.5625 8.40625 -27.375 L 8.40625 -16.65625 C 8.40625 -13.328125 8.6875 -12.015625 8.828125 -10 L 8.828125 -7.828125 C 8.828125 -4.484375 9.125 -1.15625 9.125 2.171875 L 9.125 3.328125 C 14.1875 3.625 21.578125 5.640625 29.828125 5.640625 L 30.703125 1.296875 L 30.703125 -9.84375 C 30.703125 -13.03125 30.5625 -15.78125 30.125 -18.828125 L 29.25 -25.78125 L 29.25 -32.734375 L 31 -32.734375 C 33.59375 -32.734375 34.46875 -33.3125 37.359375 -33.3125 C 40.265625 -33.3125 43.296875 -28.53125 45.1875 -24.1875 L 46.203125 -21.71875 C 47.5 -17.671875 47.65625 -14.921875 48.078125 -11.59375 C 48.515625 -5.0625 48.8125 -2.75 49.234375 -1.15625 L 49.828125 1.296875 L 50.40625 3.625 L 51.703125 7.53125 L 52.578125 9.265625 C 58.21875 18.828125 60.828125 18.828125 64.15625 20.5625 L 66.46875 21.71875 C 73.578125 24.625 82.703125 25.203125 90.234375 25.203125 L 96.453125 25.203125 C 96.453125 25.203125 97.328125 25.0625 99.78125 25.0625 L 99.359375 8.984375 L 87.625 8.40625 C 86.609375 8.546875 85.734375 8.546875 84.875 8.546875 C 83.859375 8.546875 82.984375 8.40625 82.125 8.40625 L 76.46875 7.234375 C 75.171875 6.8125 74.15625 6.078125 73.140625 5.359375 L 71.6875 4.0625 C 71.40625 3.46875 70.828125 3.046875 70.53125 2.46875 L 69.65625 -1.734375 L 64.15625 -25.640625 L 63.296875 -28.09375 C 62.859375 -29.828125 61.84375 -31.421875 60.96875 -32.875 L 60.25 -33.890625 C 59.53125 -34.90625 59.09375 -35.625 58.21875 -36.5 C 58.515625 -36.5 60.53125 -37.21875 62.703125 -38.53125 L 64.734375 -39.96875 C 66.90625 -41.859375 68.65625 -44.03125 69.8125 -47.0625 L 70.828125 -52 C 71.40625 -56.046875 71.828125 -60.109375 71.828125 -64.296875 C 71.828125 -66.625 71.40625 -70.390625 70.390625 -72.84375 L 69.078125 -76.328125 C 65.890625 -82.40625 64.15625 -84.71875 56.765625 -86.171875 L 50.828125 -87.46875 C 47.0625 -88.0625 43.15625 -88.921875 42.296875 -89.0625 L 20.28125 -89.0625 C 15.0625 -89.0625 12.015625 -87.625 8.984375 -87.625 L 4.0625 -87.46875 L 3.1875 -68.21875 Z M 29.25 -49.390625 C 28.828125 -51.125 28.390625 -53.296875 28.390625 -55.03125 C 28.390625 -55.46875 28.234375 -55.765625 28.234375 -56.1875 L 28.234375 -59.8125 C 28.234375 -60.25 28.09375 -60.53125 28.09375 -60.96875 L 28.09375 -65.75 C 28.09375 -66.765625 28.234375 -67.921875 28.234375 -68.9375 C 28.234375 -69.65625 28.53125 -70.390625 28.53125 -71.109375 C 28.53125 -72.265625 28.671875 -73.28125 28.671875 -74.4375 C 29.828125 -74.59375 30.84375 -74.734375 32 -74.734375 L 33.453125 -74.734375 C 34.328125 -74.734375 35.34375 -74.59375 36.359375 -74.59375 C 47.359375 -74.59375 44.890625 -71.984375 45.1875 -71.546875 L 46.203125 -70.390625 L 46.921875 -68.9375 C 47.21875 -68.359375 47.359375 -67.78125 47.5 -67.203125 L 47.796875 -65.890625 L 47.796875 -57.78125 C 47.796875 -54.890625 45.90625 -49.671875 40.546875 -49.671875 C 40.265625 -49.671875 39.96875 -49.828125 39.6875 -49.828125 L 37.21875 -49.828125 C 36.5 -49.828125 35.625 -49.671875 34.765625 -49.671875 C 34.171875 -49.671875 33.453125 -49.53125 32.875 -49.53125 C 31.859375 -49.53125 31 -49.390625 30.125 -49.390625 Z M 29.25 -49.390625 "/></g></g></g><g clip-path="url(#74340ed550)"><path fill="#545454" d="M 108.546875 247 C 107.207031 247 106.121094 245.914062 106.121094 244.570312 L 106.121094 233.566406 C 106.121094 232.226562 107.207031 231.140625 108.546875 231.140625 C 109.886719 231.140625 110.972656 232.226562 110.972656 233.566406 L 110.972656 244.570312 C 110.972656 245.914062 109.886719 247 108.546875 247 Z M 108.546875 247 " fill-opacity="1" fill-rule="nonzero"/></g><path fill="#545454" d="M 120.539062 262.296875 C 119.195312 262.296875 118.109375 261.210938 118.109375 259.871094 L 118.109375 218.269531 C 118.109375 216.929688 119.195312 215.84375 120.539062 215.84375 C 121.878906 215.84375 122.964844 216.929688 122.964844 218.269531 L 122.964844 259.871094 C 122.964844 261.210938 121.878906 262.296875 120.539062 262.296875 Z M 120.539062 262.296875 " fill-opacity="1" fill-rule="nonzero"/><path fill="#545454" d="M 132.527344 259.695312 C 131.1875 259.695312 130.101562 258.609375 130.101562 257.269531 L 130.101562 220.871094 C 130.101562 219.53125 131.1875 218.445312 132.527344 218.445312 C 133.867188 218.445312 134.953125 219.53125 134.953125 220.871094 L 134.953125 257.269531 C 134.953125 258.609375 133.867188 259.695312 132.527344 259.695312 Z M 132.527344 259.695312 " fill-opacity="1" fill-rule="nonzero"/><path fill="#545454" d="M 144.519531 264.832031 C 143.179688 264.832031 142.089844 263.746094 142.089844 262.40625 L 142.089844 215.734375 C 142.089844 214.394531 143.179688 213.308594 144.519531 213.308594 C 145.859375 213.308594 146.945312 214.394531 146.945312 215.734375 L 146.945312 262.40625 C 146.945312 263.746094 145.859375 264.832031 144.519531 264.832031 Z M 144.519531 264.832031 " fill-opacity="1" fill-rule="nonzero"/><g clip-path="url(#c9cb812036)"><path fill="#545454" d="M 156.507812 283.875 C 155.167969 283.875 154.082031 282.789062 154.082031 281.449219 L 154.082031 196.691406 C 154.082031 195.351562 155.167969 194.265625 156.507812 194.265625 C 157.847656 194.265625 158.933594 195.351562 158.933594 196.691406 L 158.933594 281.449219 C 158.933594 282.789062 157.847656 283.875 156.507812 283.875 Z M 156.507812 283.875 " fill-opacity="1" fill-rule="nonzero"/></g><path fill="#545454" d="M 168.5 276.597656 C 167.160156 276.597656 166.070312 275.507812 166.070312 274.167969 L 166.070312 203.972656 C 166.070312 202.628906 167.160156 201.542969 168.5 201.542969 C 169.839844 201.542969 170.925781 202.628906 170.925781 203.972656 L 170.925781 274.167969 C 170.925781 275.507812 169.839844 276.597656 168.5 276.597656 Z M 168.5 276.597656 " fill-opacity="1" fill-rule="nonzero"/><path fill="#545454" d="M 180.488281 273.347656 C 179.148438 273.347656 178.0625 272.261719 178.0625 270.917969 L 178.0625 207.222656 C 178.0625 205.878906 179.148438 204.792969 180.488281 204.792969 C 181.828125 204.792969 182.914062 205.878906 182.914062 207.222656 L 182.914062 270.917969 C 182.914062 272.261719 181.828125 273.347656 180.488281 273.347656 Z M 180.488281 273.347656 " fill-opacity="1" fill-rule="nonzero"/><path fill="#545454" d="M 192.480469 262.425781 C 191.140625 262.425781 190.050781 261.339844 190.050781 260 L 190.050781 218.140625 C 190.050781 216.800781 191.140625 215.714844 192.480469 215.714844 C 193.820312 215.714844 194.90625 216.800781 194.90625 218.140625 L 194.90625 260 C 194.90625 261.339844 193.820312 262.425781 192.480469 262.425781 Z M 192.480469 262.425781 " fill-opacity="1" fill-rule="nonzero"/><path fill="#545454" d="M 204.46875 253.066406 C 203.128906 253.066406 202.042969 251.980469 202.042969 250.640625 L 202.042969 227.5 C 202.042969 226.160156 203.128906 225.074219 204.46875 225.074219 C 205.808594 225.074219 206.894531 226.160156 206.894531 227.5 L 206.894531 250.640625 C 206.894531 251.980469 205.808594 253.066406 204.46875 253.066406 Z M 204.46875 253.066406 " fill-opacity="1" fill-rule="nonzero"/><path fill="#545454" d="M 216.460938 248.710938 C 215.121094 248.710938 214.035156 247.625 214.035156 246.285156 L 214.035156 231.855469 C 214.035156 230.515625 215.121094 229.429688 216.460938 229.429688 C 217.800781 229.429688 218.886719 230.515625 218.886719 231.855469 L 218.886719 246.285156 C 218.886719 247.625 217.800781 248.710938 216.460938 248.710938 Z M 216.460938 248.710938 " fill-opacity="1" fill-rule="nonzero"/><path fill="#545454" d="M 228.449219 248.710938 C 227.109375 248.710938 226.023438 247.625 226.023438 246.285156 L 226.023438 231.855469 C 226.023438 230.515625 227.109375 229.429688 228.449219 229.429688 C 229.789062 229.429688 230.878906 230.515625 230.878906 231.855469 L 230.878906 246.285156 C 230.878906 247.625 229.789062 248.710938 228.449219 248.710938 Z M 228.449219 248.710938 " fill-opacity="1" fill-rule="nonzero"/><path fill="#545454" d="M 240.441406 271.785156 C 239.101562 271.785156 238.015625 270.699219 238.015625 269.359375 L 238.015625 208.78125 C 238.015625 207.441406 239.101562 206.355469 240.441406 206.355469 C 241.78125 206.355469 242.867188 207.441406 242.867188 208.78125 L 242.867188 269.359375 C 242.867188 270.699219 241.78125 271.785156 240.441406 271.785156 Z M 240.441406 271.785156 " fill-opacity="1" fill-rule="nonzero"/><path fill="#545454" d="M 252.429688 279.910156 C 251.089844 279.910156 250.003906 278.824219 250.003906 277.484375 L 250.003906 200.65625 C 250.003906 199.316406 251.089844 198.230469 252.429688 198.230469 C 253.769531 198.230469 254.859375 199.316406 254.859375 200.65625 L 254.859375 277.484375 C 254.859375 278.824219 253.769531 279.910156 252.429688 279.910156 Z M 252.429688 279.910156 " fill-opacity="1" fill-rule="nonzero"/><path fill="#545454" d="M 264.421875 275.003906 C 263.082031 275.003906 261.996094 273.917969 261.996094 272.578125 L 261.996094 205.5625 C 261.996094 204.222656 263.082031 203.136719 264.421875 203.136719 C 265.761719 203.136719 266.847656 204.222656 266.847656 205.5625 L 266.847656 272.578125 C 266.847656 273.917969 265.761719 275.003906 264.421875 275.003906 Z M 264.421875 275.003906 " fill-opacity="1" fill-rule="nonzero"/><path fill="#545454" d="M 276.410156 267.675781 C 275.070312 267.675781 273.984375 266.589844 273.984375 265.25 L 273.984375 212.890625 C 273.984375 211.550781 275.070312 210.464844 276.410156 210.464844 C 277.753906 210.464844 278.839844 211.550781 278.839844 212.890625 L 278.839844 265.25 C 278.839844 266.589844 277.753906 267.675781 276.410156 267.675781 Z M 276.410156 267.675781 " fill-opacity="1" fill-rule="nonzero"/><path fill="#545454" d="M 288.402344 282.144531 C 287.0625 282.144531 285.976562 281.058594 285.976562 279.71875 L 285.976562 198.421875 C 285.976562 197.082031 287.0625 195.996094 288.402344 195.996094 C 289.742188 195.996094 290.828125 197.082031 290.828125 198.421875 L 290.828125 279.71875 C 290.828125 281.058594 289.742188 282.144531 288.402344 282.144531 Z M 288.402344 282.144531 " fill-opacity="1" fill-rule="nonzero"/><path fill="#545454" d="M 300.390625 260.554688 C 299.050781 260.554688 297.964844 259.46875 297.964844 258.128906 L 297.964844 220.011719 C 297.964844 218.671875 299.050781 217.585938 300.390625 217.585938 C 301.734375 217.585938 302.820312 218.671875 302.820312 220.011719 L 302.820312 258.128906 C 302.820312 259.46875 301.734375 260.554688 300.390625 260.554688 Z M 300.390625 260.554688 " fill-opacity="1" fill-rule="nonzero"/><g clip-path="url(#1fd186a14f)"><path fill="#545454" d="M 312.382812 252.570312 C 311.042969 252.570312 309.957031 251.484375 309.957031 250.144531 L 309.957031 227.996094 C 309.957031 226.65625 311.042969 225.570312 312.382812 225.570312 C 313.722656 225.570312 314.808594 226.65625 314.808594 227.996094 L 314.808594 250.144531 C 314.808594 251.484375 313.722656 252.570312 312.382812 252.570312 Z M 312.382812 252.570312 " fill-opacity="1" fill-rule="nonzero"/></g><g fill="#dc143d" fill-opacity="1"><g transform="translate(25.055834, 195.280929)"><g><path d="M 34.53125 -90.515625 C 31.140625 -90.515625 8.484375 -92.203125 9.5625 -90.8125 L 9.5625 -88.046875 C 9.5625 -85.578125 9.40625 -82.796875 9.40625 -80.484375 L 9.40625 -75.859375 C 9.40625 -71.84375 9.25 -68 9.25 -64.140625 L 9.25 -61.0625 C 9.25 -58.59375 9.09375 -56.28125 9.09375 -54.28125 L 9.09375 -45.015625 C 8.9375 -43.015625 9.40625 -37.625 9.40625 -34.84375 L 9.40625 -24.203125 C 9.40625 -21.125 9.25 -17.734375 9.25 -14.640625 L 9.25 8.640625 C 9.25 9.71875 9.09375 10.796875 9.09375 11.875 C 9.09375 18.046875 8.9375 24.203125 8.015625 29.296875 C 8.328125 29.453125 8.640625 29.609375 9.09375 29.609375 C 9.875 29.609375 10.796875 29.296875 11.875 29.296875 C 12.796875 29.296875 13.5625 29.453125 14.5 29.453125 C 16.953125 29.453125 19.890625 29.140625 22.515625 29.140625 C 38.546875 29.140625 33.765625 30.21875 46.25 30.21875 L 62.59375 30.21875 C 63.984375 30.21875 65.53125 30.0625 68 30.0625 L 71.234375 12.03125 C 65.6875 12.03125 62.59375 11.71875 60.59375 11.71875 L 56.4375 11.71875 C 55.5 11.71875 56.28125 11.5625 53.34375 11.5625 L 47.953125 11.5625 C 46.5625 11.5625 45.328125 11.71875 44.09375 11.875 C 42.25 11.875 40.859375 11.71875 39.46875 11.71875 L 36.078125 11.71875 C 34.53125 11.71875 33 11.5625 32.6875 11.5625 L 31.453125 2.15625 C 31.453125 -2.78125 32.21875 -10.953125 32.21875 -15.734375 L 32.21875 -19.578125 C 32.6875 -23.59375 32.6875 -27.75 33 -31.765625 C 33.15625 -33.296875 33 -34.84375 33.15625 -36.390625 L 33.921875 -50.109375 C 33.921875 -54.125 34.234375 -58.4375 34.6875 -62.453125 L 35.15625 -70 C 35.15625 -71.078125 35.3125 -72 35.3125 -73.078125 L 35.3125 -74.625 C 35.3125 -77.25 35.46875 -79.40625 35.46875 -81.40625 Z M 34.53125 -90.515625 "/></g></g></g><path stroke-linecap="butt" transform="matrix(0.747775, 0.0577269, -0.0577269, 0.747775, 33.980906, 228.970077)" fill="none" stroke-linejoin="miter" d="M -0.0000220439 3.999681 L 80.238106 4.000907 " stroke="#dc143d" stroke-width="8" stroke-opacity="1" stroke-miterlimit="4"/><g clip-path="url(#2c624e5980)"><path fill="#03028b" d="M 333.773438 105.015625 C 334.246094 105.011719 335.5 105.019531 336.632812 105.90625 C 337.492188 106.582031 337.835938 107.417969 337.988281 107.800781 C 338.695312 109.570312 338.132812 111.195312 337.953125 111.695312 C 337.738281 112.285156 337.417969 113.167969 336.558594 113.875 C 335.121094 115.054688 333.03125 115.019531 331.558594 114.300781 C 331.320312 114.183594 330.382812 113.703125 329.664062 112.625 C 329.535156 112.425781 328.886719 111.417969 328.84375 109.945312 C 328.828125 109.449219 328.789062 108.0625 329.738281 106.871094 C 330.339844 106.113281 331.070312 105.777344 331.558594 105.550781 C 331.953125 105.367188 332.722656 105.023438 333.773438 105.015625 Z M 333.773438 105.015625 " fill-opacity="1" fill-rule="nonzero"/></g><g clip-path="url(#8dbddd234b)"><g clip-path="url(#01735dc716)"><g clip-path="url(#e5d08181e5)"><path fill="#03028b" d="M 336.894531 120.734375 C 337.214844 120.957031 338.054688 121.558594 338.394531 122.6875 C 338.65625 123.550781 338.492188 124.277344 338.414062 124.605469 C 338.050781 126.128906 336.90625 126.957031 336.546875 127.207031 C 336.121094 127.503906 335.488281 127.945312 334.578125 128.015625 C 333.050781 128.125 331.660156 127.117188 331.011719 125.933594 C 330.902344 125.742188 330.503906 124.972656 330.53125 123.910156 C 330.535156 123.714844 330.578125 122.730469 331.246094 121.71875 C 331.472656 121.378906 332.101562 120.429688 333.300781 120.074219 C 334.066406 119.851562 334.71875 119.96875 335.152344 120.046875 C 335.503906 120.113281 336.1875 120.242188 336.894531 120.734375 Z M 336.894531 120.734375 " fill-opacity="1" fill-rule="nonzero"/></g></g></g><g clip-path="url(#d8ba64e64b)"><path fill="#03028b" d="M 331.210938 132.480469 C 330.945312 132.488281 330.546875 132.578125 330.238281 132.703125 C 329.730469 132.910156 329.242188 133.300781 328.917969 133.765625 C 328.777344 133.96875 328.582031 134.289062 328.511719 134.441406 C 328.328125 134.832031 328.1875 135.386719 328.132812 135.929688 C 328.082031 136.414062 328.214844 137.058594 328.457031 137.515625 C 328.75 138.070312 329 138.300781 329.558594 138.523438 C 329.933594 138.671875 330.597656 138.820312 331.042969 138.855469 C 331.269531 138.875 331.324219 138.875 331.570312 138.855469 C 331.835938 138.835938 332.046875 138.796875 332.320312 138.714844 C 332.84375 138.554688 333.175781 138.367188 333.53125 138.03125 C 333.753906 137.824219 333.972656 137.519531 334.125 137.210938 C 334.238281 136.976562 334.390625 136.535156 334.449219 136.261719 C 334.488281 136.074219 334.492188 136.015625 334.492188 135.699219 C 334.492188 135.390625 334.488281 135.324219 334.453125 135.164062 C 334.371094 134.773438 334.222656 134.398438 334.046875 134.132812 C 333.890625 133.902344 333.625 133.558594 333.507812 133.433594 C 333.222656 133.132812 332.722656 132.8125 332.351562 132.691406 C 332.152344 132.625 331.496094 132.492188 331.320312 132.480469 C 331.285156 132.476562 331.25 132.476562 331.210938 132.480469 Z M 331.210938 132.480469 " fill-opacity="1" fill-rule="nonzero"/></g><g fill="#218b21" fill-opacity="1"><g transform="translate(66.341149, 179.216378)"><g><path d="M 2.6875 -74.375 C 1.796875 -72.71875 1.671875 -69 1.40625 -66.4375 L 1.40625 -58.890625 C 3.578125 -58.890625 7.6875 -59.140625 11.515625 -59.40625 C 12.546875 -59.40625 13.4375 -59.65625 14.34375 -59.65625 C 16.125 -59.65625 18.3125 -59.90625 19.59375 -59.140625 C 19.59375 -58.890625 19.453125 -58.625 19.453125 -58.375 L 18.953125 -55.9375 C 18.8125 -55.171875 18.6875 -54.28125 18.4375 -53.515625 L 17.15625 -48.390625 L 14.34375 -38.15625 L 13.1875 -33.40625 L 11.390625 -24.703125 L 10.75 -21.890625 C 10.234375 -20.21875 9.984375 -18.3125 9.734375 -16.515625 L 8.578125 -11.265625 L 7.421875 -5.5 L 6.265625 0 C 6.015625 1.796875 5.5 3.578125 5.125 5.25 L 4.734375 7.421875 C 4.09375 10.109375 3.203125 12.921875 3.203125 15.234375 L 3.203125 16 C 3.203125 18.171875 12.546875 19.203125 15.484375 19.203125 C 19.59375 19.203125 21 17.53125 21.890625 10.75 L 22.40625 7.8125 C 22.53125 6.78125 22.921875 5.765625 23.046875 4.859375 L 23.5625 2.171875 C 23.9375 0.515625 24.328125 -0.890625 24.703125 -1.921875 C 28.671875 -2.9375 33.671875 -2.4375 37.640625 -2.4375 L 44.9375 -2.4375 C 45.578125 -2.4375 46.078125 -2.5625 46.59375 -2.5625 C 47.109375 -2.5625 47.625 -2.6875 48.140625 -2.6875 C 48.78125 -0.390625 50.046875 2.9375 50.046875 5 L 50.828125 7.8125 L 51.71875 10.5 L 52.609375 13.0625 C 52.875 13.5625 52.875 14.078125 53.125 14.59375 L 54.015625 16.890625 C 54.28125 17.671875 54.65625 18.4375 55.046875 19.078125 L 57.34375 18.4375 L 58.890625 18.046875 C 59.53125 18.046875 60.046875 18.171875 60.546875 18.171875 C 64.640625 17.40625 71.171875 16.765625 72.84375 15.109375 C 72.578125 14.46875 72.078125 13.5625 71.9375 12.921875 L 71.046875 9.21875 L 70.671875 7.546875 C 70.671875 7.296875 70.53125 7.046875 70.53125 6.78125 C 70.53125 6.015625 70.671875 5.125 70.671875 4.359375 L 70.40625 3.203125 C 70.28125 2.5625 70.03125 1.921875 69.765625 1.28125 L 67.59375 -4.859375 C 67.34375 -5.765625 67.078125 -6.53125 66.703125 -7.421875 L 65.671875 -10.109375 C 64.90625 -12.03125 64.390625 -13.828125 63.625 -15.875 L 62.734375 -18.6875 L 61.0625 -23.6875 L 60.546875 -25.34375 C 60.171875 -26.625 59.78125 -28.03125 59.53125 -29.4375 L 58.625 -34.4375 L 57.21875 -40.578125 L 55.9375 -45.828125 C 55.6875 -46.984375 55.296875 -48.140625 54.921875 -49.28125 L 54.15625 -51.84375 L 53.375 -54.28125 L 51.96875 -59.40625 L 51.078125 -62.734375 C 51.59375 -62.734375 52.234375 -62.859375 52.75 -62.859375 L 55.296875 -62.859375 C 56.203125 -62.859375 56.96875 -62.984375 57.859375 -62.984375 C 58.765625 -62.984375 59.65625 -62.984375 60.546875 -63.109375 L 63.109375 -63.5 C 63.375 -63.5 63.75 -63.5 64 -63.625 C 65.03125 -64.140625 64.90625 -65.28125 64.90625 -66.5625 C 64.90625 -68.875 65.15625 -77.328125 63.625 -77.328125 C 58.765625 -77.328125 53.125 -76.8125 49.40625 -76.8125 L 47.234375 -76.8125 C 42.75 -76.8125 38.65625 -75.90625 35.328125 -75.90625 L 28.546875 -75.53125 C 27.90625 -75.40625 27.390625 -75.40625 26.75 -75.40625 L 21.5 -75.40625 C 20.609375 -75.40625 19.84375 -75.265625 18.953125 -75.265625 L 14.59375 -74.890625 C 11.140625 -74.890625 7.8125 -74.375 4.359375 -74.375 Z M 46.21875 -13.5625 L 30.984375 -13.5625 C 29.3125 -13.5625 27.90625 -13.703125 26.375 -13.703125 L 24.453125 -13.703125 L 25.734375 -20.609375 C 25.734375 -21.25 26.109375 -22.140625 26.25 -22.78125 L 27.015625 -26.5 L 28.421875 -32.390625 C 28.421875 -35.328125 29.703125 -38.53125 30.34375 -41.21875 L 31.625 -46.21875 L 33.15625 -51.96875 L 33.546875 -53.375 C 33.921875 -54.65625 34.3125 -55.9375 34.5625 -57.21875 C 35.96875 -55.8125 36.609375 -51.96875 36.875 -50.4375 L 37.125 -48.90625 C 37.25 -48.140625 37.640625 -47.5 37.765625 -46.71875 L 38.28125 -44.421875 L 38.78125 -42.25 L 39.171875 -40.703125 C 39.296875 -39.9375 39.6875 -39.296875 39.8125 -38.53125 L 40.84375 -34.1875 C 40.84375 -33.15625 41.484375 -32.265625 41.609375 -31.234375 L 42.625 -26.75 C 42.75 -25.984375 43.140625 -25.34375 43.265625 -24.578125 L 43.65625 -23.171875 C 43.90625 -21.890625 44.171875 -20.734375 44.546875 -19.453125 L 45.578125 -15.75 C 45.703125 -15.109375 45.828125 -14.203125 46.21875 -13.5625 Z M 46.21875 -13.5625 "/></g></g></g><g fill="#fdd704" fill-opacity="1"><g transform="translate(139.752696, 186.668687)"><g><path d="M 72.75 -78.296875 C 68.8125 -78.296875 65.5625 -78.03125 63 -77.359375 L 62.1875 -75.1875 L 59.203125 -66.25 L 58.390625 -64.078125 L 56.078125 -57.171875 L 54.046875 -50.9375 L 53.234375 -48.640625 L 52.421875 -46.1875 L 50.9375 -41.3125 L 49.578125 -37.53125 L 48.765625 -35.359375 L 48.234375 -33.859375 L 47.546875 -31.703125 L 46.734375 -29.53125 L 46.1875 -28.171875 C 46.1875 -29.390625 45.515625 -31.15625 45.25 -32.375 L 44.15625 -36.71875 L 43.21875 -40.640625 L 41.453125 -47.28125 L 39.6875 -53.515625 L 38.34375 -58.796875 L 36.84375 -64.078125 L 36.4375 -65.84375 L 34.40625 -73.15625 L 33.734375 -75.453125 L 33.1875 -77.625 L 31.828125 -82.765625 L 31.703125 -83.3125 C 22.765625 -83.046875 15.03125 -82.765625 8.671875 -82.234375 C 8.671875 -76.546875 8.40625 -70.71875 8 -64.890625 L 7.71875 -59.203125 C 7.71875 -58.390625 7.59375 -57.578125 7.59375 -56.765625 L 7.59375 -54.328125 C 7.59375 -49.859375 7.046875 -45.25 7.046875 -40.640625 L 6.765625 -32.921875 C 6.765625 -31.015625 6.5 -29.53125 6.5 -27.5 C 6.5 -26.828125 6.359375 -26.140625 6.359375 -25.203125 C 6.359375 -24.25 6.234375 -23.296875 6.234375 -22.078125 L 6.234375 -19.375 C 6.234375 -17.34375 5.953125 -14.90625 5.828125 -12.875 L 5.828125 -11.109375 C 5.828125 -10.03125 5.6875 -8.9375 5.6875 -8 L 5.6875 -2.984375 C 5.6875 -0.265625 4.875 0.8125 8 0.8125 L 10.4375 0.8125 C 16.390625 0.8125 21.546875 0.265625 26.015625 -0.953125 L 26.015625 -1.625 C 26.015625 -3.515625 26.140625 -5.421875 26.140625 -7.453125 C 26.140625 -8.53125 26.28125 -9.484375 26.28125 -10.4375 C 26.28125 -13.140625 26.421875 -15.71875 26.421875 -18.421875 L 26.421875 -32.640625 C 26.421875 -34.140625 26.28125 -35.90625 26.28125 -37.25 L 26.28125 -41.3125 C 26.28125 -42.9375 26.421875 -44.703125 26.421875 -46.1875 C 26.421875 -46.0625 26.546875 -45.921875 26.546875 -45.921875 C 26.828125 -44.703125 27.359375 -42.9375 27.765625 -41.859375 L 28.453125 -39.6875 L 30.34375 -33.1875 C 30.890625 -31.5625 31.15625 -29.671875 31.703125 -28.046875 L 33.1875 -22.765625 L 33.859375 -20.1875 L 34.546875 -17.46875 L 36.171875 -11.65625 L 37.65625 -6.234375 L 39.6875 1.21875 C 42.40625 0.953125 45.25 0.8125 48.359375 0.671875 L 49.046875 -1.078125 L 51.34375 -6.90625 L 53.234375 -11.921875 L 54.1875 -14.359375 L 56.078125 -18.96875 L 60.015625 -28.71875 L 61.78125 -33.046875 L 64.484375 -39.15625 L 66.25 -43.078125 L 66.78125 -44.296875 L 67.0625 -44.96875 L 67.0625 -39.828125 C 67.0625 -39.421875 67.1875 -39.015625 67.1875 -38.609375 L 67.1875 -32.515625 C 67.1875 -31.015625 67.328125 -29.671875 67.328125 -28.046875 L 67.328125 -21.40625 C 67.328125 -20.59375 67.46875 -19.640625 67.46875 -18.828125 C 67.46875 -16.125 67.59375 -13.40625 67.59375 -10.84375 L 67.59375 -8.125 C 67.59375 -6.640625 67.734375 -4.875 67.734375 -3.390625 L 67.734375 -0.671875 C 67.734375 0.265625 67.875 1.21875 67.875 2.171875 L 67.875 5.953125 C 67.875 9.890625 68.140625 13.8125 68.140625 17.875 C 73.421875 17.609375 78.296875 17.203125 82.640625 16.25 L 82.640625 14.90625 C 82.640625 13.546875 82.5 11.921875 82.5 10.4375 L 82.5 7.3125 C 82.5 3.515625 82.234375 -1.078125 82.234375 -5.140625 L 82.234375 -8 C 82.234375 -9.625 82.09375 -11.25 82.09375 -12.875 L 82.09375 -14.90625 C 82.09375 -16.9375 81.953125 -18.828125 81.953125 -20.859375 L 81.953125 -25.875 C 81.953125 -27.90625 81.828125 -29.9375 81.828125 -31.96875 L 81.828125 -34 C 81.828125 -35.625 81.6875 -37.25 81.6875 -38.875 L 81.6875 -41.859375 C 81.6875 -42.8125 81.546875 -43.75 81.546875 -44.703125 C 81.546875 -51.484375 81.140625 -58.390625 81.140625 -65.03125 C 81.140625 -65.96875 81.015625 -66.921875 81.015625 -67.734375 L 81.015625 -69.625 C 81.015625 -73.28125 80.734375 -76.40625 80.609375 -77.890625 C 77.765625 -78.171875 75.1875 -78.296875 72.75 -78.296875 Z M 72.75 -78.296875 "/></g></g></g><g fill="#ff914d" fill-opacity="1"><g transform="translate(224.723847, 184.481893)"><g><path d="M 26.859375 -2.78125 C 26.09375 -10.03125 25.9375 -18.0625 25.9375 -24.234375 C 25.9375 -25 25.78125 -25.9375 25.78125 -26.703125 C 25.78125 -29.015625 25.625 -31.484375 25.625 -33.8125 C 25.625 -36.28125 25.78125 -38.59375 25.78125 -41.0625 C 25.78125 -42.75 26.09375 -44.296875 26.09375 -46 C 26.09375 -51.25 26.390625 -56.5 26.859375 -61.75 L 26.859375 -62.984375 L 27.171875 -70.234375 C 27.171875 -71 27.328125 -71.78125 27.328125 -72.546875 C 27.328125 -74.09375 27.171875 -75.796875 27.171875 -77.328125 C 27.171875 -78.5625 27.015625 -79.796875 27.015625 -81.03125 L 27.015625 -82.28125 C 27.015625 -84.28125 26.703125 -86.28125 26.703125 -88.296875 C 26.703125 -88.75 26.390625 -89.375 26.09375 -90.453125 C 25.3125 -90.765625 21.296875 -91.21875 19.140625 -91.21875 C 16.984375 -91.21875 8.796875 -90.765625 6.796875 -90.609375 L 6.640625 -88.140625 C 6.328125 -86.90625 6.328125 -85.828125 6.484375 -84.59375 C 6.796875 -81.8125 7.25 -79.03125 7.71875 -76.40625 L 8.03125 -72.859375 C 8.1875 -71.3125 8.328125 -69.765625 8.1875 -68.234375 L 8.1875 -66.984375 C 8.1875 -62.203125 8.484375 -56.1875 7.71875 -52.015625 L 7.25 -47.078125 C 7.25 -45.84375 7.09375 -44.765625 7.09375 -43.53125 C 7.09375 -42.296875 7.25 -41.21875 7.25 -39.984375 L 7.25 -37.515625 C 7.40625 -35.046875 7.5625 -32.71875 7.5625 -30.25 L 7.5625 -24.234375 C 7.5625 -20.375 7.09375 -16.671875 7.09375 -12.8125 L 7.09375 -11.265625 C 7.09375 -5.5625 6.328125 -2.625 6.328125 3.546875 C 6.328125 4.46875 6.484375 5.40625 6.484375 6.484375 L 10.5 6.015625 C 11.109375 5.40625 24.390625 4.328125 27.328125 4.328125 Z M 26.859375 -2.78125 "/></g></g></g><g clip-path="url(#21ac40062d)"><path fill="#ffffff" d="M 41.277344 228.835938 C 45.164062 225.972656 48.980469 222.835938 53.003906 220.175781 L 41.140625 210.765625 C 39.980469 210.21875 38.820312 209.675781 37.664062 209.128906 C 36.503906 208.652344 36.296875 207.152344 37.253906 206.332031 C 39.570312 204.425781 41.957031 202.515625 44.277344 200.539062 C 45.640625 199.445312 46.933594 198.355469 48.300781 197.265625 C 48.914062 196.789062 51.300781 195.355469 51.300781 194.808594 C 51.4375 193.308594 46.390625 189.285156 45.503906 188.332031 C 43.390625 186.152344 41.277344 183.96875 39.164062 181.71875 C 38.414062 180.96875 38.683594 179.535156 39.503906 178.921875 C 41.890625 177.148438 44.277344 175.308594 46.664062 173.535156 C 47.683594 172.785156 48.777344 172.035156 49.730469 171.21875 C 51.230469 169.855469 51.707031 169.855469 50.070312 168.148438 C 46.457031 164.46875 42.777344 160.855469 39.09375 157.238281 C 37.796875 157.035156 36.84375 155.125 38.140625 153.898438 C 40.320312 151.921875 42.503906 149.945312 44.683594 147.964844 C 45.707031 147.082031 46.730469 146.125 47.683594 145.238281 C 49.320312 143.738281 50.070312 143.261719 48.707031 141.285156 C 47.207031 139.101562 44.34375 137.195312 42.367188 135.351562 C 40.664062 133.714844 38.957031 132.148438 37.320312 130.441406 C 36.777344 129.898438 36.777344 128.671875 37.320312 128.125 C 39.09375 126.351562 40.796875 124.578125 42.570312 122.804688 C 43.867188 121.441406 45.777344 120.011719 46.867188 118.511719 C 47.820312 117.148438 47.414062 116.941406 46.253906 115.851562 C 45.300781 114.964844 44.277344 114.011719 43.320312 113.125 C 41.683594 111.625 39.914062 110.191406 38.277344 108.761719 C 37.117188 107.804688 38.546875 105.894531 39.707031 106.851562 C 42.433594 109.167969 45.164062 111.417969 47.957031 113.667969 C 49.183594 114.625 50.6875 115.578125 50.820312 117.285156 C 51.027344 119.398438 48.980469 121.101562 47.683594 122.464844 C 45.640625 124.714844 43.59375 126.964844 41.546875 129.148438 C 44.070312 131.535156 46.527344 133.988281 48.980469 136.375 C 50.550781 137.945312 53.207031 139.785156 53.480469 142.238281 C 53.820312 145.035156 51.09375 146.738281 49.320312 148.445312 C 46.800781 150.761719 44.277344 153.148438 41.820312 155.46875 L 49.457031 162.761719 C 51.164062 164.398438 54.300781 166.445312 54.980469 168.898438 C 55.664062 171.558594 53.34375 173.128906 51.503906 174.558594 C 48.914062 176.605469 46.253906 178.71875 43.664062 180.765625 C 46.117188 183.285156 48.503906 185.742188 50.890625 188.265625 C 52.390625 189.832031 55.390625 192.289062 54.980469 194.808594 C 54.503906 197.605469 50.277344 199.789062 48.300781 201.425781 C 45.914062 203.402344 43.59375 205.3125 41.207031 207.289062 C 43.527344 208.515625 45.707031 209.878906 47.890625 211.378906 C 50.957031 213.5625 53.414062 216.425781 56.414062 218.675781 C 56.753906 218.949219 56.957031 219.628906 56.617188 219.96875 C 52.664062 224.199219 47.890625 227.878906 43.527344 231.699219 C 41.753906 233.265625 39.367188 230.265625 41.277344 228.835938 Z M 41.277344 228.835938 " fill-opacity="1" fill-rule="nonzero"/></g></svg>